JetBrainsMoro-Thin.ufo
<glyph name="period" format="2">
  <advance width="600"/>
  <unicode hex="002E"/>
  <outline>
    <contour>
      <point x="300" y="-10" type="curve" smooth="yes"/>
      <point x="345" y="-10"/>
      <point x="373" y="19"/>
      <point x="373" y="65" type="curve" smooth="yes"/>
      <point x="373" y="110"/>
      <point x="345" y="138"/>
      <point x="300" y="138" type="curve" smooth="yes"/>
      <point x="255" y="138"/>
      <point x="227" y="110"/>
      <point x="227" y="65" type="curve" smooth="yes"/>
      <point x="227" y="19"/>
      <point x="255" y="-10"/>
    </contour>
  </outline>
</glyph>
<glyph name="a" format="2">
  <advance width="600"/>
  <unicode hex="0061"/>
  <anchor x="305" y="0" name="bottom"/>
  <anchor x="460" y="0" name="ogonek"/>
  <anchor x="305" y="550" name="top"/>
  <outline>
    <contour>
      <point x="269" y="-10" type="curve" smooth="yes"/>
      <point x="377" y="-10"/>
      <point x="449" y="47"/>
      <point x="449" y="132" type="curve"/>
      <point x="433" y="112" type="line"/>
      <point x="442" y="112" type="line"/>
      <point x="442" y="0" type="line"/>
      <point x="492" y="0" type="line"/>
      <point x="492" y="375" type="line" smooth="yes"/>
      <point x="492" y="486"/>
      <point x="416" y="560"/>
      <point x="303" y="560" type="curve" smooth="yes"/>
      <point x="199" y="560"/>
      <point x="122" y="498"/>
      <point x="109" y="405" type="curve"/>
      <point x="159" y="405" type="line"/>
      <point x="170" y="472"/>
      <point x="230" y="515"/>
      <point x="303" y="515" type="curve" smooth="yes"/>
      <point x="391" y="515"/>
      <point x="442" y="463"/>
      <point x="442" y="375" type="curve" smooth="yes"/>
      <point x="442" y="310" type="line"/>
      <point x="253" y="310" type="line" smooth="yes"/>
      <point x="150" y="310"/>
      <point x="82" y="248"/>
      <point x="82" y="154" type="curve" smooth="yes"/>
      <point x="82" y="55"/>
      <point x="156" y="-10"/>
    </contour>
    <contour>
      <point x="283" y="34" type="curve" smooth="yes"/>
      <point x="192" y="34"/>
      <point x="132" y="84"/>
      <point x="132" y="158" type="curve" smooth="yes"/>
      <point x="132" y="223"/>
      <point x="180" y="266"/>
      <point x="252" y="266" type="curve" smooth="yes"/>
      <point x="442" y="266" type="line"/>
      <point x="442" y="167" type="line" smooth="yes"/>
      <point x="442" y="88"/>
      <point x="378" y="34"/>
    </contour>
  </outline>
</glyph>
<glyph name="braceleft" format="2">
  <advance width="600"/>
  <unicode hex="007B"/>
  <outline>
    <contour>
      <point x="435" y="-110" type="curve" smooth="yes"/>
      <point x="490" y="-110" type="line"/>
      <point x="490" y="-65" type="line"/>
      <point x="435" y="-65" type="line" smooth="yes"/>
      <point x="373" y="-65"/>
      <point x="328" y="-25"/>
      <point x="335" y="40" type="curve" smooth="yes"/>
      <point x="355" y="237" type="line" smooth="yes"/>
      <point x="363" y="313"/>
      <point x="317" y="364"/>
      <point x="250" y="364" type="curve"/>
      <point x="250" y="357" type="line"/>
      <point x="317" y="357"/>
      <point x="363" y="407"/>
      <point x="355" y="482" type="curve" smooth="yes"/>
      <point x="335" y="680" type="line" smooth="yes"/>
      <point x="328" y="745"/>
      <point x="373" y="785"/>
      <point x="435" y="785" type="curve" smooth="yes"/>
      <point x="490" y="785" type="line"/>
      <point x="490" y="830" type="line"/>
      <point x="435" y="830" type="line" smooth="yes"/>
      <point x="339" y="830"/>
      <point x="275" y="775"/>
      <point x="285" y="680" type="curve" smooth="yes"/>
      <point x="305" y="482" type="line" smooth="yes"/>
      <point x="312" y="408"/>
      <point x="287" y="382"/>
      <point x="205" y="382" type="curve" smooth="yes"/>
      <point x="90" y="382" type="line"/>
      <point x="90" y="336" type="line"/>
      <point x="205" y="336" type="line" smooth="yes"/>
      <point x="291" y="336"/>
      <point x="312" y="308"/>
      <point x="305" y="237" type="curve" smooth="yes"/>
      <point x="285" y="40" type="line" smooth="yes"/>
      <point x="275" y="-55"/>
      <point x="339" y="-110"/>
    </contour>
  </outline>
</glyph>
<glyph name="onehalf" format="2">
  <advance width="600"/>
  <unicode hex="00BD"/>
  <outline>
    <contour>
      <point x="330" y="0" type="line"/>
      <point x="570" y="0" type="line"/>
      <point x="570" y="40" type="line"/>
      <point x="447" y="40" type="line" smooth="yes"/>
      <point x="438" y="40"/>
      <point x="409" y="40"/>
      <point x="389" y="40" type="curve"/>
      <point x="389" y="44" type="line"/>
      <point x="465" y="92" type="line" smooth="yes"/>
      <point x="528" y="132"/>
      <point x="560" y="177"/>
      <point x="560" y="227" type="curve" smooth="yes"/>
      <point x="560" y="287"/>
      <point x="515" y="330"/>
      <point x="448" y="330" type="curve" smooth="yes"/>
      <point x="377" y="330"/>
      <point x="330" y="284"/>
      <point x="330" y="216" type="curve"/>
      <point x="375" y="216" type="line"/>
      <point x="375" y="260"/>
      <point x="404" y="290"/>
      <point x="448" y="290" type="curve" smooth="yes"/>
      <point x="489" y="290"/>
      <point x="515" y="264"/>
      <point x="515" y="224" type="curve" smooth="yes"/>
      <point x="515" y="188"/>
      <point x="494" y="158"/>
      <point x="445" y="126" type="curve" smooth="yes"/>
      <point x="330" y="51" type="line"/>
    </contour>
    <contour>
      <point x="38" y="405" type="line"/>
      <point x="323" y="405" type="line"/>
      <point x="323" y="445" type="line"/>
      <point x="202" y="445" type="line"/>
      <point x="202" y="730" type="line"/>
      <point x="132" y="730" type="line"/>
      <point x="61" y="669" type="line"/>
      <point x="61" y="614" type="line"/>
      <point x="124" y="668" type="line" smooth="yes"/>
      <point x="139" y="681"/>
      <point x="151" y="694"/>
      <point x="157" y="700" type="curve"/>
      <point x="157" y="445" type="line"/>
      <point x="38" y="445" type="line"/>
    </contour>
    <component base="fraction"/>
  </outline>
</glyph>
<glyph name="dcaron" format="2">
  <advance width="600"/>
  <unicode hex="010F"/>
  <outline>
    <contour>
      <point x="510" y="550" type="line"/>
      <point x="555" y="550" type="line"/>
      <point x="570" y="730" type="line"/>
      <point x="520" y="730" type="line"/>
    </contour>
    <contour>
      <point x="262" y="-10" type="curve" smooth="yes"/>
      <point x="356" y="-10"/>
      <point x="415" y="48"/>
      <point x="415" y="140" type="curve"/>
      <point x="377" y="75" type="line"/>
      <point x="405" y="75" type="line"/>
      <point x="405" y="0" type="line"/>
      <point x="455" y="0" type="line"/>
      <point x="455" y="730" type="line"/>
      <point x="405" y="730" type="line"/>
      <point x="405" y="580" type="line"/>
      <point x="405" y="475" type="line"/>
      <point x="387" y="475" type="line"/>
      <point x="415" y="410" type="line"/>
      <point x="415" y="502"/>
      <point x="356" y="560"/>
      <point x="262" y="560" type="curve" smooth="yes"/>
      <point x="157" y="560"/>
      <point x="90" y="483"/>
      <point x="90" y="360" type="curve" smooth="yes"/>
      <point x="90" y="189" type="line" smooth="yes"/>
      <point x="90" y="67"/>
      <point x="157" y="-10"/>
    </contour>
    <contour>
      <point x="272" y="33" type="curve" smooth="yes"/>
      <point x="191" y="33"/>
      <point x="140" y="93"/>
      <point x="140" y="189" type="curve" smooth="yes"/>
      <point x="140" y="360" type="line" smooth="yes"/>
      <point x="140" y="456"/>
      <point x="191" y="517"/>
      <point x="272" y="517" type="curve" smooth="yes"/>
      <point x="354" y="517"/>
      <point x="405" y="456"/>
      <point x="405" y="360" type="curve" smooth="yes"/>
      <point x="405" y="189" type="line" smooth="yes"/>
      <point x="405" y="93"/>
      <point x="354" y="33"/>
    </contour>
  </outline>
</glyph>
<glyph name="uhorn" format="2">
  <advance width="600"/>
  <unicode hex="01B0"/>
  <anchor x="299" y="0" name="bottom"/>
  <anchor x="300" y="550" name="top"/>
  <outline>
    <contour>
      <point x="108" y="194" type="line" smooth="yes"/>
      <point x="108" y="67"/>
      <point x="180" y="-10"/>
      <point x="299" y="-10" type="curve" smooth="yes"/>
      <point x="419" y="-10"/>
      <point x="492" y="68"/>
      <point x="492" y="194" type="curve" smooth="yes"/>
      <point x="492" y="515" type="line"/>
      <point x="542" y="515"/>
      <point x="576" y="549"/>
      <point x="576" y="600" type="curve" smooth="yes"/>
      <point x="576" y="660" type="line"/>
      <point x="536" y="660" type="line"/>
      <point x="536" y="600" type="line" smooth="yes"/>
      <point x="536" y="570"/>
      <point x="518" y="550"/>
      <point x="491" y="550" type="curve" smooth="yes"/>
      <point x="442" y="550" type="line"/>
      <point x="442" y="194" type="line" smooth="yes"/>
      <point x="442" y="94"/>
      <point x="388" y="35"/>
      <point x="299" y="35" type="curve" smooth="yes"/>
      <point x="211" y="35"/>
      <point x="158" y="94"/>
      <point x="158" y="194" type="curve" smooth="yes"/>
      <point x="158" y="550" type="line"/>
      <point x="108" y="550" type="line"/>
    </contour>
  </outline>
</glyph>
<glyph name="circumflexcomb" format="2">
  <unicode hex="0302"/>
  <anchor x="-300" y="550" name="_top"/>
  <anchor x="-300" y="785" name="top"/>
  <outline>
    <contour>
      <point x="-450" y="645" type="line"/>
      <point x="-399" y="645" type="line"/>
      <point x="-300" y="754" type="line"/>
      <point x="-199" y="645" type="line"/>
      <point x="-150" y="645" type="line"/>
      <point x="-270" y="785" type="line"/>
      <point x="-330" y="785" type="line"/>
    </contour>
  </outline>
</glyph>
<glyph name="dieresistonos" format="2">
  <advance width="600"/>
  <unicode hex="0385"/>
  <outline>
    <contour>
      <point x="274" y="769" type="line"/>
      <point x="316" y="769" type="line"/>
      <point x="404" y="900" type="line"/>
      <point x="355" y="900" type="line"/>
    </contour>
    <contour>
      <point x="408" y="655" type="curve" smooth="yes"/>
      <point x="439" y="655"/>
      <point x="459" y="677"/>
      <point x="459" y="710" type="curve" smooth="yes"/>
      <point x="459" y="743"/>
      <point x="439" y="765"/>
      <point x="408" y="765" type="curve" smooth="yes"/>
      <point x="376" y="765"/>
      <point x="355" y="743"/>
      <point x="355" y="710" type="curve" smooth="yes"/>
      <point x="355" y="677"/>
      <point x="376" y="655"/>
    </contour>
    <contour>
      <point x="193" y="655" type="curve" smooth="yes"/>
      <point x="224" y="655"/>
      <point x="245" y="677"/>
      <point x="245" y="710" type="curve" smooth="yes"/>
      <point x="245" y="743"/>
      <point x="224" y="765"/>
      <point x="193" y="765" type="curve" smooth="yes"/>
      <point x="162" y="765"/>
      <point x="141" y="743"/>
      <point x="141" y="710" type="curve" smooth="yes"/>
      <point x="141" y="677"/>
      <point x="162" y="655"/>
    </contour>
  </outline>
</glyph>
<glyph name="Lambda" format="2">
  <advance width="600"/>
  <unicode hex="039B"/>
  <outline>
    <contour>
      <point x="68" y="0" type="line"/>
      <point x="118" y="0" type="line"/>
      <point x="266" y="550" type="line" smooth="yes"/>
      <point x="287" y="630"/>
      <point x="300" y="690"/>
      <point x="300" y="690" type="curve"/>
      <point x="300" y="690"/>
      <point x="312" y="630"/>
      <point x="333" y="550" type="curve" smooth="yes"/>
      <point x="480" y="0" type="line"/>
      <point x="532" y="0" type="line"/>
      <point x="331" y="730" type="line"/>
      <point x="269" y="730" type="line"/>
    </contour>
  </outline>
</glyph>
<glyph name="Psi" format="2">
  <advance width="600"/>
  <unicode hex="03A8"/>
  <outline>
    <contour>
      <point x="275" y="0" type="line"/>
      <point x="325" y="0" type="line"/>
      <point x="325" y="170" type="line"/>
      <point x="454" y="170"/>
      <point x="534" y="248"/>
      <point x="534" y="372" type="curve" smooth="yes"/>
      <point x="534" y="730" type="line"/>
      <point x="484" y="730" type="line"/>
      <point x="484" y="372" type="line" smooth="yes"/>
      <point x="484" y="281"/>
      <point x="418" y="215"/>
      <point x="325" y="215" type="curve"/>
      <point x="325" y="730" type="line"/>
      <point x="275" y="730" type="line"/>
      <point x="275" y="215" type="line"/>
      <point x="182" y="215"/>
      <point x="116" y="281"/>
      <point x="116" y="372" type="curve" smooth="yes"/>
      <point x="116" y="730" type="line"/>
      <point x="66" y="730" type="line"/>
      <point x="66" y="372" type="line" smooth="yes"/>
      <point x="66" y="248"/>
      <point x="146" y="170"/>
      <point x="275" y="170" type="curve"/>
    </contour>
  </outline>
</glyph>
<glyph name="gamma" format="2">
  <advance width="600"/>
  <unicode hex="03B3"/>
  <outline>
    <contour>
      <point x="275" y="-180" type="line"/>
      <point x="325" y="-180" type="line"/>
      <point x="325" y="0" type="line"/>
      <point x="524" y="550" type="line"/>
      <point x="473" y="550" type="line"/>
      <point x="332" y="150" type="line" smooth="yes"/>
      <point x="322" y="123"/>
      <point x="311" y="86"/>
      <point x="301" y="52" type="curve"/>
      <point x="291" y="86"/>
      <point x="281" y="123"/>
      <point x="271" y="150" type="curve" smooth="yes"/>
      <point x="129" y="550" type="line"/>
      <point x="76" y="550" type="line"/>
      <point x="275" y="0" type="line"/>
    </contour>
  </outline>
</glyph>
<glyph name="undertie" format="2">
  <advance width="600"/>
  <unicode hex="203F"/>
  <outline>
    <contour>
      <point x="150" y="-180" type="curve" smooth="yes"/>
      <point x="450" y="-180" type="line" smooth="yes"/>
      <point x="553" y="-180"/>
      <point x="620" y="-113"/>
      <point x="620" y="-10" type="curve"/>
      <point x="570" y="-10" type="line"/>
      <point x="570" y="-86"/>
      <point x="521" y="-135"/>
      <point x="445" y="-135" type="curve" smooth="yes"/>
      <point x="155" y="-135" type="line" smooth="yes"/>
      <point x="79" y="-135"/>
      <point x="30" y="-86"/>
      <point x="30" y="-10" type="curve"/>
      <point x="-20" y="-10" type="line"/>
      <point x="-20" y="-113"/>
      <point x="47" y="-180"/>
    </contour>
  </outline>
</glyph>
<glyph name="northWestArrow" format="2">
  <advance width="600"/>
  <unicode hex="2196"/>
  <outline>
    <contour>
      <point x="529" y="75" type="line"/>
      <point x="590" y="138" type="line"/>
      <point x="237" y="494" type="line" smooth="yes"/>
      <point x="219" y="512"/>
      <point x="196" y="531"/>
      <point x="184" y="540" type="curve"/>
      <point x="185" y="547" type="line"/>
      <point x="200" y="545"/>
      <point x="232" y="542"/>
      <point x="265" y="542" type="curve" smooth="yes"/>
      <point x="460" y="542" type="line"/>
      <point x="460" y="620" type="line"/>
      <point x="45" y="620" type="line"/>
      <point x="45" y="205" type="line"/>
      <point x="125" y="205" type="line"/>
      <point x="125" y="404" type="line" smooth="yes"/>
      <point x="125" y="437"/>
      <point x="120" y="472"/>
      <point x="117" y="489" type="curve"/>
      <point x="124" y="491" type="line"/>
      <point x="134" y="477"/>
      <point x="155" y="452"/>
      <point x="174" y="433" type="curve" smooth="yes"/>
    </contour>
  </outline>
</glyph>
<glyph name="rightWaveArrow" format="2">
  <advance width="600"/>
  <unicode hex="219D"/>
  <outline>
    <contour>
      <point x="-80" y="160" type="line"/>
      <point x="0" y="160" type="line"/>
      <point x="0" y="204" type="line" smooth="yes"/>
      <point x="0" y="277"/>
      <point x="30" y="322"/>
      <point x="78" y="322" type="curve" smooth="yes"/>
      <point x="172" y="322"/>
      <point x="199" y="150"/>
      <point x="346" y="150" type="curve" smooth="yes"/>
      <point x="441" y="150"/>
      <point x="514" y="223"/>
      <point x="600" y="310" type="curve"/>
      <point x="600" y="105" type="line"/>
      <point x="680" y="105" type="line"/>
      <point x="680" y="445" type="line"/>
      <point x="340" y="445" type="line"/>
      <point x="340" y="367" type="line"/>
      <point x="546" y="367" type="line"/>
      <point x="460" y="280"/>
      <point x="408" y="228"/>
      <point x="349" y="228" type="curve" smooth="yes"/>
      <point x="242" y="228"/>
      <point x="222" y="400"/>
      <point x="78" y="400" type="curve" smooth="yes"/>
      <point x="-19" y="400"/>
      <point x="-80" y="322"/>
      <point x="-80" y="204" type="curve" smooth="yes"/>
    </contour>
  </outline>
</glyph>
<glyph name="complement" format="2">
  <advance width="600"/>
  <unicode hex="2201"/>
  <outline>
    <contour>
      <point x="305" y="-10" type="curve" smooth="yes"/>
      <point x="384" y="-10"/>
      <point x="435" y="40"/>
      <point x="435" y="116" type="curve" smooth="yes"/>
      <point x="435" y="180" type="line"/>
      <point x="385" y="180" type="line"/>
      <point x="385" y="116" type="line" smooth="yes"/>
      <point x="385" y="68"/>
      <point x="353" y="36"/>
      <point x="305" y="36" type="curve" smooth="yes"/>
      <point x="257" y="36"/>
      <point x="225" y="68"/>
      <point x="225" y="116" type="curve" smooth="yes"/>
      <point x="225" y="434" type="line" smooth="yes"/>
      <point x="225" y="482"/>
      <point x="257" y="514"/>
      <point x="305" y="514" type="curve" smooth="yes"/>
      <point x="353" y="514"/>
      <point x="385" y="482"/>
      <point x="385" y="434" type="curve" smooth="yes"/>
      <point x="385" y="370" type="line"/>
      <point x="435" y="370" type="line"/>
      <point x="435" y="434" type="line" smooth="yes"/>
      <point x="435" y="510"/>
      <point x="384" y="560"/>
      <point x="305" y="560" type="curve" smooth="yes"/>
      <point x="226" y="560"/>
      <point x="175" y="510"/>
      <point x="175" y="434" type="curve" smooth="yes"/>
      <point x="175" y="116" type="line" smooth="yes"/>
      <point x="175" y="40"/>
      <point x="226" y="-10"/>
    </contour>
  </outline>
</glyph>
<glyph name="equivalence" format="2">
  <advance width="600"/>
  <unicode hex="2261"/>
  <outline>
    <contour>
      <point x="95" y="502" type="line"/>
      <point x="505" y="502" type="line"/>
      <point x="505" y="546" type="line"/>
      <point x="95" y="546" type="line"/>
    </contour>
    <contour>
      <point x="95" y="114" type="line"/>
      <point x="505" y="114" type="line"/>
      <point x="505" y="158" type="line"/>
      <point x="95" y="158" type="line"/>
    </contour>
    <contour>
      <point x="95" y="308" type="line"/>
      <point x="505" y="308" type="line"/>
      <point x="505" y="352" type="line"/>
      <point x="95" y="352" type="line"/>
    </contour>
  </outline>
</glyph>
<glyph name="notidentical" format="2">
  <advance width="600"/>
  <unicode hex="2262"/>
  <outline>
    <contour>
      <point x="150" y="-50" type="line"/>
      <point x="196" y="-50" type="line"/>
      <point x="448" y="720" type="line"/>
      <point x="402" y="720" type="line"/>
    </contour>
    <component base="equivalence"/>
  </outline>
</glyph>
<glyph name="notlessnorequal" format="2">
  <advance width="600"/>
  <unicode hex="2270"/>
  <outline>
    <contour>
      <point x="90" y="0" type="line"/>
      <point x="510" y="0" type="line"/>
      <point x="510" y="45" type="line"/>
      <point x="90" y="45" type="line"/>
    </contour>
    <contour>
      <point x="128" y="-110" type="line"/>
      <point x="174" y="-110" type="line"/>
      <point x="472" y="780" type="line"/>
      <point x="426" y="780" type="line"/>
    </contour>
    <component base="less" yOffset="125"/>
  </outline>
</glyph>
<glyph name="notgreaternorequal" format="2">
  <advance width="600"/>
  <unicode hex="2271"/>
  <outline>
    <contour>
      <point x="128" y="-110" type="line"/>
      <point x="174" y="-110" type="line"/>
      <point x="472" y="780" type="line"/>
      <point x="426" y="780" type="line"/>
    </contour>
    <contour>
      <point x="90" y="0" type="line"/>
      <point x="510" y="0" type="line"/>
      <point x="510" y="45" type="line"/>
      <point x="90" y="45" type="line"/>
    </contour>
    <component base="greater" yOffset="126"/>
  </outline>
</glyph>
<glyph name="neitherasupersetofnorequalto" format="2">
  <advance width="600"/>
  <unicode hex="2289"/>
  <outline>
    <contour>
      <point x="114" y="-110" type="line"/>
      <point x="160" y="-110" type="line"/>
      <point x="505" y="830" type="line"/>
      <point x="459" y="830" type="line"/>
    </contour>
    <component base="reflexsuperset"/>
  </outline>
</glyph>
<glyph name="squareoriginaloforequalto" format="2">
  <advance width="600"/>
  <unicode hex="2292"/>
  <outline>
    <contour>
      <point x="45" y="210" type="line"/>
      <point x="545" y="210" type="line"/>
      <point x="545" y="670" type="line"/>
      <point x="45" y="670" type="line"/>
      <point x="45" y="625" type="line"/>
      <point x="495" y="625" type="line"/>
      <point x="495" y="255" type="line"/>
      <point x="45" y="255" type="line"/>
    </contour>
    <contour>
      <point x="45" y="0" type="line"/>
      <point x="545" y="0" type="line"/>
      <point x="545" y="45" type="line"/>
      <point x="45" y="45" type="line"/>
    </contour>
  </outline>
</glyph>
<glyph name="squaredminus" format="2">
  <advance width="600"/>
  <unicode hex="229F"/>
  <outline>
    <contour>
      <point x="140" y="308" type="line"/>
      <point x="460" y="308" type="line"/>
      <point x="460" y="353" type="line"/>
      <point x="140" y="353" type="line"/>
    </contour>
    <component base="whiteSquare" yOffset="-30"/>
  </outline>
</glyph>
<glyph name="leftcurlybracketupperhook" format="2">
  <advance width="600"/>
  <unicode hex="23A7"/>
  <outline>
    <contour>
      <point x="275" y="-300" type="line"/>
      <point x="325" y="-300" type="line"/>
      <point x="325" y="680" type="line" smooth="yes"/>
      <point x="325" y="745"/>
      <point x="363" y="785"/>
      <point x="425" y="785" type="curve" smooth="yes"/>
      <point x="480" y="785" type="line"/>
      <point x="480" y="830" type="line"/>
      <point x="425" y="830" type="line" smooth="yes"/>
      <point x="329" y="830"/>
      <point x="275" y="776"/>
      <point x="275" y="680" type="curve" smooth="yes"/>
    </contour>
  </outline>
</glyph>
<glyph name="boxDownHeavyAndRightLight" format="2">
  <advance width="600"/>
  <unicode hex="250E"/>
  <outline>
    <contour>
      <point x="200" y="-400" type="line"/>
      <point x="400" y="-400" type="line"/>
      <point x="400" y="320" type="line"/>
      <point x="620" y="320" type="line"/>
      <point x="620" y="420" type="line"/>
      <point x="200" y="420" type="line"/>
    </contour>
  </outline>
</glyph>
<glyph name="leftsshapedbagdelimiter" format="2">
  <advance width="600"/>
  <unicode hex="27C5"/>
  <outline>
    <contour>
      <point x="245" y="703" type="line"/>
      <point x="295" y="703" type="line"/>
      <point x="295" y="730" type="line"/>
      <point x="295" y="769"/>
      <point x="321" y="795"/>
      <point x="360" y="795" type="curve" smooth="yes"/>
      <point x="396" y="795"/>
      <point x="420" y="769"/>
      <point x="420" y="730" type="curve" smooth="yes"/>
      <point x="420" y="699"/>
      <point x="405" y="659"/>
      <point x="383" y="610" type="curve" smooth="yes"/>
      <point x="227" y="268" type="line" smooth="yes"/>
      <point x="200" y="208"/>
      <point x="185" y="147"/>
      <point x="185" y="93" type="curve" smooth="yes"/>
      <point x="185" y="-30"/>
      <point x="268" y="-110"/>
      <point x="396" y="-110" type="curve" smooth="yes"/>
      <point x="460" y="-110" type="line"/>
      <point x="460" y="-65" type="line"/>
      <point x="396" y="-65" type="line" smooth="yes"/>
      <point x="299" y="-65"/>
      <point x="235" y="-2"/>
      <point x="235" y="95" type="curve" smooth="yes"/>
      <point x="235" y="143"/>
      <point x="251" y="204"/>
      <point x="280" y="268" type="curve" smooth="yes"/>
      <point x="437" y="610" type="line" smooth="yes"/>
      <point x="457" y="654"/>
      <point x="470" y="697"/>
      <point x="470" y="732" type="curve" smooth="yes"/>
      <point x="470" y="797"/>
      <point x="426" y="840"/>
      <point x="360" y="840" type="curve" smooth="yes"/>
      <point x="291" y="840"/>
      <point x="245" y="796"/>
      <point x="245" y="730" type="curve"/>
    </contour>
  </outline>
</glyph>
<glyph name="nArySquareUnionOperator" format="2">
  <advance width="600"/>
  <unicode hex="2A06"/>
  <outline>
    <contour>
      <point x="70" y="0" type="line"/>
      <point x="530" y="0" type="line"/>
      <point x="530" y="730" type="line"/>
      <point x="480" y="730" type="line"/>
      <point x="480" y="45" type="line"/>
      <point x="120" y="45" type="line"/>
      <point x="120" y="730" type="line"/>
      <point x="70" y="730" type="line"/>
    </contour>
  </outline>
</glyph>
<glyph name="O.half" format="2">
  <advance width="400"/>
  <outline>
    <contour>
      <point x="200" y="-5" type="curve" smooth="yes"/>
      <point x="295" y="-5"/>
      <point x="367" y="69"/>
      <point x="367" y="167" type="curve" smooth="yes"/>
      <point x="367" y="266"/>
      <point x="295" y="340"/>
      <point x="200" y="340" type="curve" smooth="yes"/>
      <point x="105" y="340"/>
      <point x="33" y="266"/>
      <point x="33" y="167" type="curve" smooth="yes"/>
      <point x="33" y="69"/>
      <point x="105" y="-5"/>
    </contour>
    <contour>
      <point x="200" y="33" type="curve" smooth="yes"/>
      <point x="131" y="33"/>
      <point x="80" y="90"/>
      <point x="80" y="167" type="curve" smooth="yes"/>
      <point x="80" y="244"/>
      <point x="131" y="302"/>
      <point x="200" y="302" type="curve" smooth="yes"/>
      <point x="269" y="302"/>
      <point x="320" y="244"/>
      <point x="320" y="167" type="curve" smooth="yes"/>
      <point x="320" y="90"/>
      <point x="269" y="33"/>
    </contour>
  </outline>
</glyph>
<glyph name="S.half" format="2">
  <advance width="400"/>
  <outline>
    <contour>
      <point x="194" y="-4" type="curve" smooth="yes"/>
      <point x="203" y="-4" type="line" smooth="yes"/>
      <point x="293" y="-4"/>
      <point x="349" y="36"/>
      <point x="349" y="99" type="curve" smooth="yes"/>
      <point x="349" y="147"/>
      <point x="310" y="181"/>
      <point x="249" y="188" type="curve" smooth="yes"/>
      <point x="161" y="198" type="line" smooth="yes"/>
      <point x="125" y="202"/>
      <point x="102" y="220"/>
      <point x="102" y="245" type="curve" smooth="yes"/>
      <point x="102" y="279"/>
      <point x="137" y="301"/>
      <point x="193" y="301" type="curve" smooth="yes"/>
      <point x="203" y="301" type="line" smooth="yes"/>
      <point x="255" y="301"/>
      <point x="293" y="278"/>
      <point x="298" y="244" type="curve"/>
      <point x="344" y="244" type="line"/>
      <point x="337" y="302"/>
      <point x="283" y="339"/>
      <point x="203" y="339" type="curve" smooth="yes"/>
      <point x="193" y="339" type="line" smooth="yes"/>
      <point x="109" y="339"/>
      <point x="56" y="302"/>
      <point x="56" y="243" type="curve" smooth="yes"/>
      <point x="56" y="198"/>
      <point x="93" y="166"/>
      <point x="152" y="159" type="curve" smooth="yes"/>
      <point x="240" y="149" type="line" smooth="yes"/>
      <point x="279" y="145"/>
      <point x="303" y="125"/>
      <point x="303" y="96" type="curve" smooth="yes"/>
      <point x="303" y="58"/>
      <point x="264" y="34"/>
      <point x="203" y="34" type="curve" smooth="yes"/>
      <point x="194" y="34" type="line" smooth="yes"/>
      <point x="137" y="34"/>
      <point x="98" y="61"/>
      <point x="93" y="103" type="curve"/>
      <point x="47" y="103" type="line"/>
      <point x="52" y="37"/>
      <point x="109" y="-4"/>
    </contour>
  </outline>
</glyph>
<glyph name="ampersand_ampersand_ampersand.liga" format="2">
  <advance width="600"/>
  <outline>
    <contour>
      <point x="169" y="-10" type="curve" smooth="yes"/>
      <point x="249" y="-10"/>
      <point x="316" y="33"/>
      <point x="366" y="118" type="curve"/>
      <point x="457" y="0" type="line"/>
      <point x="510" y="0" type="line"/>
      <point x="390" y="161" type="line"/>
      <point x="496" y="360" type="line"/>
      <point x="446" y="360" type="line"/>
      <point x="360" y="201" type="line"/>
      <point x="180" y="443" type="line" smooth="yes"/>
      <point x="142" y="494"/>
      <point x="119" y="539"/>
      <point x="119" y="580" type="curve" smooth="yes"/>
      <point x="119" y="641"/>
      <point x="167" y="695"/>
      <point x="234" y="695" type="curve" smooth="yes"/>
      <point x="304" y="695"/>
      <point x="354" y="637"/>
      <point x="354" y="570" type="curve"/>
      <point x="404" y="570" type="line"/>
      <point x="404" y="667"/>
      <point x="337" y="740"/>
      <point x="234" y="740" type="curve" smooth="yes"/>
      <point x="135" y="740"/>
      <point x="69" y="670"/>
      <point x="69" y="580" type="curve" smooth="yes"/>
      <point x="69" y="531"/>
      <point x="89" y="478"/>
      <point x="142" y="411" type="curve"/>
      <point x="146" y="429" type="line"/>
      <point x="63" y="420"/>
      <point x="14" y="360"/>
      <point x="14" y="266" type="curve" smooth="yes"/>
      <point x="14" y="155" type="line" smooth="yes"/>
      <point x="14" y="52"/>
      <point x="73" y="-10"/>
    </contour>
    <contour>
      <point x="-915" y="35" type="curve" smooth="yes"/>
      <point x="-981" y="35"/>
      <point x="-1025" y="84"/>
      <point x="-1025" y="155" type="curve" smooth="yes"/>
      <point x="-1025" y="266" type="line" smooth="yes"/>
      <point x="-1025" y="336"/>
      <point x="-987" y="382"/>
      <point x="-927" y="386" type="curve"/>
      <point x="-753" y="158" type="line"/>
      <point x="-797" y="77"/>
      <point x="-854" y="35"/>
    </contour>
    <contour>
      <point x="-920" y="-10" type="curve" smooth="yes"/>
      <point x="-840" y="-10"/>
      <point x="-773" y="33"/>
      <point x="-723" y="118" type="curve"/>
      <point x="-632" y="0" type="line"/>
      <point x="-579" y="0" type="line"/>
      <point x="-909" y="443" type="line" smooth="yes"/>
      <point x="-947" y="494"/>
      <point x="-970" y="539"/>
      <point x="-970" y="580" type="curve" smooth="yes"/>
      <point x="-970" y="641"/>
      <point x="-922" y="695"/>
      <point x="-855" y="695" type="curve" smooth="yes"/>
      <point x="-785" y="695"/>
      <point x="-735" y="637"/>
      <point x="-735" y="570" type="curve"/>
      <point x="-685" y="570" type="line"/>
      <point x="-685" y="667"/>
      <point x="-752" y="740"/>
      <point x="-855" y="740" type="curve" smooth="yes"/>
      <point x="-954" y="740"/>
      <point x="-1020" y="670"/>
      <point x="-1020" y="580" type="curve" smooth="yes"/>
      <point x="-1020" y="531"/>
      <point x="-1000" y="478"/>
      <point x="-947" y="411" type="curve"/>
      <point x="-943" y="429" type="line"/>
      <point x="-1026" y="420"/>
      <point x="-1075" y="360"/>
      <point x="-1075" y="266" type="curve" smooth="yes"/>
      <point x="-1075" y="155" type="line" smooth="yes"/>
      <point x="-1075" y="52"/>
      <point x="-1016" y="-10"/>
    </contour>
    <contour>
      <point x="-375" y="35" type="curve" smooth="yes"/>
      <point x="-441" y="35"/>
      <point x="-485" y="84"/>
      <point x="-485" y="155" type="curve" smooth="yes"/>
      <point x="-485" y="266" type="line" smooth="yes"/>
      <point x="-485" y="336"/>
      <point x="-447" y="382"/>
      <point x="-387" y="386" type="curve"/>
      <point x="-213" y="158" type="line"/>
      <point x="-257" y="77"/>
      <point x="-314" y="35"/>
    </contour>
    <contour>
      <point x="-380" y="-10" type="curve" smooth="yes"/>
      <point x="-300" y="-10"/>
      <point x="-233" y="33"/>
      <point x="-183" y="118" type="curve"/>
      <point x="-92" y="0" type="line"/>
      <point x="-39" y="0" type="line"/>
      <point x="-369" y="443" type="line" smooth="yes"/>
      <point x="-407" y="494"/>
      <point x="-430" y="539"/>
      <point x="-430" y="580" type="curve" smooth="yes"/>
      <point x="-430" y="641"/>
      <point x="-382" y="695"/>
      <point x="-315" y="695" type="curve" smooth="yes"/>
      <point x="-245" y="695"/>
      <point x="-195" y="637"/>
      <point x="-195" y="570" type="curve"/>
      <point x="-145" y="570" type="line"/>
      <point x="-145" y="667"/>
      <point x="-212" y="740"/>
      <point x="-315" y="740" type="curve" smooth="yes"/>
      <point x="-414" y="740"/>
      <point x="-480" y="670"/>
      <point x="-480" y="580" type="curve" smooth="yes"/>
      <point x="-480" y="531"/>
      <point x="-460" y="478"/>
      <point x="-407" y="411" type="curve"/>
      <point x="-403" y="429" type="line"/>
      <point x="-486" y="420"/>
      <point x="-535" y="360"/>
      <point x="-535" y="266" type="curve" smooth="yes"/>
      <point x="-535" y="155" type="line" smooth="yes"/>
      <point x="-535" y="52"/>
      <point x="-476" y="-10"/>
    </contour>
    <contour>
      <point x="174" y="35" type="curve" smooth="yes"/>
      <point x="109" y="35"/>
      <point x="64" y="84"/>
      <point x="64" y="155" type="curve" smooth="yes"/>
      <point x="64" y="266" type="line" smooth="yes"/>
      <point x="64" y="336"/>
      <point x="102" y="382"/>
      <point x="162" y="386" type="curve"/>
      <point x="336" y="158" type="line"/>
      <point x="292" y="77"/>
      <point x="235" y="35"/>
    </contour>
  </outline>
</glyph>
<glyph name="bar_hyphen_greater.liga" format="2">
  <advance width="600"/>
  <outline>
    <contour>
      <point x="-1060" y="35" type="line"/>
      <point x="-1010" y="35" type="line"/>
      <point x="-1010" y="305" type="line"/>
      <point x="435" y="305" type="line"/>
      <point x="428" y="296"/>
      <point x="419" y="286"/>
      <point x="408" y="273" type="curve" smooth="yes"/>
      <point x="211" y="35" type="line"/>
      <point x="270" y="35" type="line"/>
      <point x="515" y="331" type="line"/>
      <point x="271" y="625" type="line"/>
      <point x="211" y="625" type="line"/>
      <point x="405" y="389" type="line" smooth="yes"/>
      <point x="416" y="375"/>
      <point x="426" y="364"/>
      <point x="434" y="355" type="curve"/>
      <point x="-1010" y="355" type="line"/>
      <point x="-1010" y="625" type="line"/>
      <point x="-1060" y="625" type="line"/>
    </contour>
  </outline>
</glyph>
<glyph name="brevecomb_hookabovecomb" format="2">
  <anchor x="-300" y="550" name="_top"/>
  <anchor x="-300" y="926" name="top"/>
  <outline>
    <contour>
      <point x="-300" y="645" type="curve" smooth="yes"/>
      <point x="-210" y="645"/>
      <point x="-150" y="695"/>
      <point x="-150" y="770" type="curve"/>
      <point x="-195" y="770" type="line"/>
      <point x="-195" y="719"/>
      <point x="-237" y="685"/>
      <point x="-300" y="685" type="curve" smooth="yes"/>
      <point x="-363" y="685"/>
      <point x="-405" y="719"/>
      <point x="-405" y="770" type="curve"/>
      <point x="-450" y="770" type="line"/>
      <point x="-450" y="695"/>
      <point x="-390" y="645"/>
    </contour>
    <contour>
      <point x="-331" y="760" type="line"/>
      <point x="-285" y="760" type="line"/>
      <point x="-249" y="807" type="line" smooth="yes"/>
      <point x="-234" y="827"/>
      <point x="-223" y="849"/>
      <point x="-223" y="869" type="curve" smooth="yes"/>
      <point x="-223" y="902"/>
      <point x="-252" y="926"/>
      <point x="-298" y="926" type="curve" smooth="yes"/>
      <point x="-372" y="926" type="line"/>
      <point x="-372" y="891" type="line"/>
      <point x="-298" y="891" type="line" smooth="yes"/>
      <point x="-276" y="891"/>
      <point x="-262" y="880"/>
      <point x="-262" y="865" type="curve" smooth="yes"/>
      <point x="-262" y="854"/>
      <point x="-269" y="840"/>
      <point x="-281" y="825" type="curve" smooth="yes"/>
    </contour>
  </outline>
</glyph>
<glyph name="greater_hyphen.liga" format="2">
  <advance width="600"/>
  <outline>
    <contour>
      <point x="-495" y="35" type="line"/>
      <point x="-436" y="35" type="line"/>
      <point x="-210" y="308" type="line"/>
      <point x="505" y="308" type="line"/>
      <point x="505" y="353" type="line"/>
      <point x="-209" y="353" type="line"/>
      <point x="-435" y="625" type="line"/>
      <point x="-495" y="625" type="line"/>
      <point x="-301" y="389" type="line" smooth="yes"/>
      <point x="-273" y="355"/>
      <point x="-255" y="336"/>
      <point x="-249" y="330" type="curve"/>
      <point x="-255" y="324"/>
      <point x="-272" y="304"/>
      <point x="-298" y="273" type="curve" smooth="yes"/>
    </contour>
  </outline>
</glyph>
<glyph name="numbersign_underscore.liga" format="2">
  <advance width="600"/>
  <outline>
    <contour>
      <point x="-290" y="-70" type="line"/>
      <point x="530" y="-70" type="line"/>
      <point x="530" y="-25" type="line"/>
      <point x="-237" y="-25" type="line"/>
      <point x="-188" y="230" type="line"/>
      <point x="-70" y="230" type="line"/>
      <point x="-70" y="270" type="line"/>
      <point x="-180" y="270" type="line"/>
      <point x="-144" y="460" type="line"/>
      <point x="-35" y="460" type="line"/>
      <point x="-35" y="500" type="line"/>
      <point x="-136" y="500" type="line"/>
      <point x="-92" y="730" type="line"/>
      <point x="-137" y="730" type="line"/>
      <point x="-181" y="500" type="line"/>
      <point x="-367" y="500" type="line"/>
      <point x="-323" y="730" type="line"/>
      <point x="-368" y="730" type="line"/>
      <point x="-412" y="500" type="line"/>
      <point x="-530" y="500" type="line"/>
      <point x="-530" y="460" type="line"/>
      <point x="-420" y="460" type="line"/>
      <point x="-456" y="270" type="line"/>
      <point x="-565" y="270" type="line"/>
      <point x="-565" y="230" type="line"/>
      <point x="-464" y="230" type="line"/>
      <point x="-508" y="0" type="line"/>
      <point x="-463" y="0" type="line"/>
      <point x="-419" y="230" type="line"/>
      <point x="-233" y="230" type="line"/>
    </contour>
    <contour>
      <point x="-411" y="270" type="line"/>
      <point x="-375" y="460" type="line"/>
      <point x="-189" y="460" type="line"/>
      <point x="-225" y="270" type="line"/>
    </contour>
  </outline>
</glyph>
<glyph name="tildecomb.case" format="2">
  <anchor x="-300" y="730" name="_top"/>
  <anchor x="-300" y="945" name="top"/>
  <outline>
    <contour>
      <point x="-225" y="815" type="curve" smooth="yes"/>
      <point x="-172" y="815"/>
      <point x="-140" y="849"/>
      <point x="-140" y="905" type="curve" smooth="yes"/>
      <point x="-140" y="940" type="line"/>
      <point x="-180" y="940" type="line"/>
      <point x="-180" y="905" type="line" smooth="yes"/>
      <point x="-180" y="874"/>
      <point x="-197" y="854"/>
      <point x="-225" y="854" type="curve" smooth="yes"/>
      <point x="-274" y="854"/>
      <point x="-295" y="945"/>
      <point x="-370" y="945" type="curve" smooth="yes"/>
      <point x="-426" y="945"/>
      <point x="-460" y="911"/>
      <point x="-460" y="855" type="curve" smooth="yes"/>
      <point x="-460" y="820" type="line"/>
      <point x="-420" y="820" type="line"/>
      <point x="-420" y="855" type="line" smooth="yes"/>
      <point x="-420" y="886"/>
      <point x="-401" y="906"/>
      <point x="-370" y="906" type="curve" smooth="yes"/>
      <point x="-321" y="906"/>
      <point x="-300" y="815"/>
    </contour>
  </outline>
</glyph>
